#define image_width 16
#define image_height 16
static unsigned char image_bits[] = {
 0x00, 0x00,
 0x00, 0x10,
 0x00, 0x08,
 0x01, 0x15,
 0x00, 0x0E,
 0x50, 0x15,
 0xF8, 0x0F,
 0x70, 0x17,
 0xF8, 0x1F,
 0x50, 0x15,
 0xF8, 0x0F,
 0x51, 0x17,
 0x00, 0x0E,
 0x00, 0x14,
 0x00, 0x08,
 0x00, 0x00,
 };
