#define image_width 16
#define image_height 16
static unsigned char image_bits[] = {
 0x00, 0x00,
 0x40, 0x05,
 0xF8, 0x0F,
 0x11, 0x15,
 0x1E, 0x38,
 0x15, 0x54,
 0x03, 0xC0,
 0x01, 0x40,
 0x03, 0xC0,
 0x05, 0x40,
 0xCF, 0x7F,
 0x45, 0x55,
 0x00, 0x00,
 0x00, 0x00,
 0x00, 0x00,
 0x00, 0x00,
 };
