#define image_width 16
#define image_height 16
static unsigned char image_bits[] = {
 0x00, 0x00,
 0x00, 0x40,
 0x00, 0x60,
 0x11, 0x71,
 0x00, 0x26,
 0x00, 0x44,
 0x00, 0x66,
 0x40, 0x74,
 0x60, 0x26,
 0x44, 0x44,
 0x4C, 0x66,
 0x45, 0x75,
 0x4C, 0x26,
 0x00, 0x00,
 0x00, 0x00,
 0x00, 0x00,
 };
